<svg width="160" height="80" viewBox="0 0 160 80" fill="none" xmlns="http://www.w3.org/2000/svg">
<g id="Pieces/Logos">
<g id="Vector">
<path d="M27.7404 36.0941H36.693V29.1393H44.6527V49.0772H36.693V41.1186H27.7404V49.0772H19.7751V29.1393H27.7404V36.0941Z" fill="#A7A7A7"/>
<path d="M65.1724 44.5767C67.7662 44.5767 69.2666 43.7715 69.2666 41.2013V29.1393H77.2319V41.5102C77.2319 47.8473 73.3608 49.7777 65.1724 49.7777C56.984 49.7777 53.113 47.8473 53.113 41.5102V29.1393H61.0782V41.2013C61.0782 43.7715 62.5787 44.5767 65.1724 44.5767Z" fill="#A7A7A7"/>
<path d="M93.4219 35.4268L102.938 36.8166C106.948 37.4068 109.436 39.2489 109.436 42.6243C109.436 47.4833 105.426 49.7722 96.473 49.7722C90.3485 49.7722 83.655 48.9338 83.6271 43.071H93.2267C93.2546 43.7384 93.5056 44.1851 94.0745 44.494C94.6658 44.7753 95.5359 44.9131 96.7798 44.9131C99.262 44.9131 99.9425 44.2458 99.9425 43.2971C99.9425 42.7125 99.5743 42.1224 98.5034 41.9569L89.4114 40.6167C85.518 40.0265 83.906 37.7928 83.906 35.0021C83.906 29.8397 89.0209 28.4443 95.5694 28.4443C104.55 28.4443 108.248 30.7608 108.533 34.98H99.2676C99.2676 34.1693 98.7879 33.6618 98.0516 33.3861C97.3488 33.0827 96.4451 32.9669 95.5694 32.9669C93.1932 32.9669 92.3788 33.5515 92.3788 34.3899C92.3788 34.9524 92.6298 35.3109 93.4219 35.4268Z" fill="#A7A7A7"/>
<path d="M125.11 36.0941H134.057V29.1393H142.022V49.0772H134.057V41.1186H125.11V49.0772H117.145V29.1393H125.11V36.0941Z" fill="#A7A7A7"/>
</g>
</g>
</svg>
